<?xml version="1.0" standalone="no"?>
<!DOCTYPE svg PUBLIC "-//W3C//DTD SVG 20010904//EN"
 "http://www.w3.org/TR/2001/REC-SVG-20010904/DTD/svg10.dtd">
<svg version="1.0" xmlns="http://www.w3.org/2000/svg"
 width="512.000000pt" height="512.000000pt" viewBox="0 0 512.000000 512.000000"
 preserveAspectRatio="xMidYMid meet">
<metadata>
Created by potrace 1.14, written by Peter Selinger 2001-2017
</metadata>
<g transform="translate(0.000000,512.000000) scale(0.100000,-0.100000)"
fill="#000000" stroke="none">
<path d="M695 4530 c-167 -333 -215 -438 -215 -468 0 -92 53 -223 121 -297
l39 -42 0 -140 0 -140 -77 -5 c-85 -5 -121 -19 -171 -69 -73 -72 -67 52 -70
-1411 l-2 -1318 -81 0 -81 0 4 -158 c4 -172 9 -191 70 -251 18 -18 47 -40 63
-49 28 -16 199 -17 2265 -17 2073 0 2237 1 2266 17 16 9 45 32 63 50 61 62 65
78 69 250 l4 158 -81 0 -81 0 -2 1318 c-3 1463 3 1340 -69 1411 -48 48 -87 64
-171 69 l-78 5 0 140 0 140 39 42 c68 74 121 205 121 297 0 30 -48 135 -215
468 l-215 430 -1650 0 -1650 0 -215 -430z m790 258 c-43 -125 -200 -675 -210
-736 -16 -95 -44 -151 -106 -206 -64 -59 -121 -80 -210 -80 -62 0 -87 5 -132
27 -92 46 -170 148 -179 234 -2 26 36 110 182 403 l185 370 237 0 c186 0 236
-3 233 -12z m1357 -361 c40 -406 40 -419 -10 -510 -113 -208 -431 -208 -544 0
-50 90 -50 104 -11 497 19 199 36 367 39 374 2 9 61 12 247 12 l243 0 36 -373z
m1448 3 c146 -293 184 -377 182 -403 -9 -86 -87 -188 -179 -234 -73 -35 -184
-38 -254 -6 -101 45 -172 137 -190 244 -8 47 -179 652 -214 757 -3 9 48 12
233 12 l237 0 185 -370z m-3650 -2390 l0 -1240 1920 0 1920 0 0 1240 0 1240
51 0 c43 0 55 -5 80 -29 l29 -29 0 -1291 0 -1291 -2080 0 -2080 0 0 1291 0
1291 29 29 c25 24 37 29 80 29 l51 0 0 -1240z m4158 -1616 c-3 -39 -11 -61
-27 -77 l-22 -22 -2189 0 -2189 0 -22 22 c-16 16 -24 38 -27 77 l-4 56 2242 0
2242 0 -4 -56z"/>
</g>
</svg>
